<?xml version="1.0" standalone="no"?><!DOCTYPE svg PUBLIC "-//W3C//DTD SVG 1.1//EN" "http://www.w3.org/Graphics/SVG/1.1/DTD/svg11.dtd"><svg t="1515592621320" class="icon" style="" viewBox="0 0 1024 1024" version="1.1" xmlns="http://www.w3.org/2000/svg" p-id="3698" xmlns:xlink="http://www.w3.org/1999/xlink" width="200" height="200"><defs><style type="text/css"></style></defs><path d="M603.939 586.641c-1.309-0.43-2.832-1.189-4.57-2.273-1.74-1.086-3.918-3.15-6.533-6.199-2.617-3.047-4.57-6.74-5.863-11.08-1.295-4.342-1.838-10.316-1.629-17.929 0.207-7.61 1.836-15.979 4.885-25.107 21.746-22.608 39.68-50.437 53.803-83.481 14.123-33.047 21.191-66.307 21.205-99.783 0-51.313-14.672-91.204-44.018-119.672-29.344-28.467-65.756-42.707-109.237-42.721-43.48-0.015-79.894 14.226-109.238 42.721-29.344 28.495-44.016 68.386-44.016 119.672 0 33.923 7.068 67.406 21.204 100.451s32.071 60.871 53.804 83.482c3.479 11.311 5.217 20.551 5.217 27.715 0 7.166-1.955 13.365-5.864 18.596-3.909 5.232-7.388 8.926-10.435 11.082s-5.656 3.68-7.826 4.572c-31.308 11.311-60.442 24.141-87.407 38.486-26.964 14.344-50.332 31.082-70.104 50.213-19.773 19.131-29.664 37.609-29.679 55.434v20.871c0 18.268 8.153 33.811 24.461 46.625 16.308 12.816 38.806 22.492 67.495 29.031 28.689 6.537 58.584 11.213 89.682 14.023 31.098 2.813 65.557 4.225 103.374 4.236 189.143 0 283.715-31.305 283.715-93.918v-20.871c0-18.268-10.002-36.969-30.01-56.1s-43.926-35.869-71.754-50.213c-27.828-14.346-58.049-26.959-90.662-37.842v-0.021z" p-id="3699" fill="#ffffff"></path></svg>