<?xml version="1.0" standalone="no"?><!DOCTYPE svg PUBLIC "-//W3C//DTD SVG 1.1//EN" "http://www.w3.org/Graphics/SVG/1.1/DTD/svg11.dtd"><svg t="1514964715663" class="icon" style="" viewBox="0 0 1024 1024" version="1.1" xmlns="http://www.w3.org/2000/svg" p-id="2789" xmlns:xlink="http://www.w3.org/1999/xlink" width="200" height="200"><defs><style type="text/css"></style></defs><path d="M797.82 91.052c7.632 0 15.312 0.64 22.916 1.937 7.601 1.28 15.141 3.214 22.476 5.775 7.353 2.574 14.531 5.808 21.396 9.664 6.88 3.889 13.479 8.4 19.671 13.585 12.396 10.404 22.022 22.459 28.777 35.37 6.787 12.964 10.705 26.819 11.662 40.74 0.972 13.99-1.05 28.03-6.113 41.313-5.094 13.334-13.261 25.892-24.593 36.785-5.675 5.471-11.879 10.27-18.48 14.378-6.599 4.125-13.62 7.559-20.908 10.303-7.288 2.761-14.874 4.831-22.603 6.211-7.742 1.38-15.642 2.07-23.573 2.07-3.746 0-7.492-0.168-11.255-0.471-3.745-0.302-7.491-0.774-11.207-1.38-3.73-0.623-7.43-1.397-11.112-2.307-3.669-0.927-7.306-2.002-10.909-3.231l-99.298 94.055c7.085 11.986 12.444 24.645 16.066 37.676 3.652 13.08 5.548 26.515 5.69 39.982 0.126 13.553-1.521 27.121-4.985 40.386-3.464 13.316-8.762 26.33-15.88 38.705l106.869 99.14c4.122-1.769 8.322-3.317 12.586-4.646 4.264-1.331 8.59-2.441 12.964-3.318 4.373-0.891 8.793-1.548 13.244-2.002 4.451-0.438 8.935-0.657 13.416-0.657 8.355 0 16.756 0.773 25.078 2.307 8.323 1.531 16.585 3.839 24.626 6.919 8.055 3.081 15.925 6.937 23.464 11.565 7.556 4.63 14.798 10.05 21.6 16.263 13.637 12.458 24.248 26.902 31.74 42.374 7.522 15.573 11.912 32.188 13.072 48.888 1.16 16.802-0.941 33.669-6.412 49.63-5.485 16.044-14.356 31.129-26.71 44.259-6.19 6.582-12.962 12.339-20.188 17.288-7.225 4.967-14.891 9.107-22.885 12.425-7.994 3.316-16.301 5.808-24.779 7.457-8.482 1.667-17.148 2.509-25.849 2.509-8.714 0-17.461-0.842-26.114-2.509-8.637-1.649-17.181-4.141-25.501-7.457-8.31-3.317-16.381-7.458-24.092-12.425-7.695-4.949-15.031-10.706-21.865-17.288-11.207-10.793-20.189-22.912-26.944-35.775-6.74-12.828-11.255-26.397-13.573-40.168-2.289-13.686-2.398-27.576-0.313-41.076 2.083-13.468 6.348-26.565 12.79-38.754l-102.543-96.817c-7.305 4.596-14.89 8.636-22.712 12.087-7.821 3.467-15.877 6.363-24.06 8.669-8.213 2.307-16.567 4.039-24.985 5.201-8.432 1.161-16.942 1.751-25.438 1.751-7.147 0-14.279-0.421-21.38-1.229-7.101-0.824-14.154-2.053-21.112-3.688-6.959-1.616-13.824-3.651-20.563-6.109-6.726-2.441-13.339-5.288-19.75-8.536l-110.048 104.24c4.169 11.532 6.568 23.62 7.225 35.857 0.643 12.273-0.469 24.714-3.353 36.919-2.901 12.256-7.57 24.258-14.028 35.622-6.473 11.396-14.734 22.137-24.767 31.801-6.833 6.581-14.17 12.339-21.865 17.288-7.712 4.967-15.784 9.107-24.093 12.424-8.322 3.318-16.866 5.809-25.517 7.458-8.637 1.668-17.384 2.509-26.082 2.509-8.715 0-17.384-0.841-25.863-2.509-8.48-1.649-16.788-4.14-24.78-7.458-7.979-3.316-15.659-7.457-22.886-12.424-7.211-4.949-13.981-10.707-20.172-17.288-12.351-13.131-21.223-28.214-26.724-44.259-5.455-15.958-7.57-32.828-6.412-49.629 1.16-16.7 5.548-33.317 13.072-48.888 7.492-15.471 18.104-29.915 31.756-42.374 6.803-6.196 14.044-11.616 21.6-16.264 7.539-4.629 15.393-8.484 23.448-11.565 8.057-3.08 16.303-5.388 24.625-6.919s16.725-2.307 25.079-2.307c5.878 0 11.755 0.388 17.555 1.146 5.799 0.757 11.551 1.9 17.194 3.417 5.642 1.514 11.207 3.418 16.614 5.707 5.408 2.29 10.675 4.949 15.769 8.014l100.473-93.532c-10.016-14.023-17.46-29.142-22.351-44.782-4.858-15.572-7.194-31.632-7.021-47.658 0.157-15.943 2.805-31.836 7.884-47.122 5.047-15.218 12.523-29.849 22.384-43.384l-92.604-87.407c-4.671 2.272-9.466 4.259-14.356 5.959-4.875 1.717-9.845 3.131-14.858 4.276-5.033 1.146-10.096 2.002-15.189 2.559-5.094 0.572-10.204 0.858-15.299 0.858-7.931 0-15.832-0.69-23.575-2.07-7.727-1.38-15.299-3.435-22.601-6.195-7.289-2.744-14.296-6.196-20.909-10.304-6.599-4.108-12.79-8.907-18.481-14.376-11.317-10.892-19.499-23.453-24.593-36.785-5.063-13.283-7.085-27.323-6.114-41.313 0.957-13.923 4.875-27.778 11.663-40.739 6.772-12.914 16.379-24.965 28.794-35.37 6.176-5.186 12.773-9.697 19.656-13.586 6.88-3.856 14.044-7.087 21.396-9.664 7.335-2.559 14.875-4.496 22.477-5.775 7.603-1.297 15.283-1.937 22.932-1.937 7.633 0 15.252 0.639 22.728 1.937 7.477 1.279 14.828 3.214 21.912 5.775 7.101 2.575 13.951 5.808 20.454 9.664 6.504 3.889 12.649 8.4 18.34 13.586 8.747 7.979 15.751 16.953 21.018 26.531 5.298 9.596 8.841 19.832 10.645 30.335 1.802 10.523 1.864 21.313 0.173 32.004-1.707 10.725-5.188 21.331-10.407 31.448l96.568 89.594c6.552-3.4 13.292-6.362 20.158-8.906 6.866-2.542 13.871-4.662 20.958-6.363 7.083-1.683 14.262-2.946 21.473-3.805 7.225-0.841 14.482-1.262 21.755-1.262 8.527 0 17.069 0.589 25.533 1.75 8.463 1.179 16.865 2.929 25.125 5.269 8.246 2.339 16.365 5.269 24.264 8.788 7.9 3.518 15.598 7.644 22.979 12.356l90.802-84.527c-7.492-10.674-12.836-22.155-16.003-33.939-3.151-11.734-4.138-23.753-2.978-35.538 1.16-11.75 4.468-23.265 9.905-34.072 5.424-10.757 12.994-20.808 22.682-29.663 5.689-5.186 11.833-9.697 18.338-13.586 6.506-3.856 13.355-7.087 20.457-9.664 7.084-2.559 14.435-4.496 21.911-5.775C782.552 91.692 790.169 91.052 797.82 91.052L797.82 91.052z" p-id="2790"></path></svg>