<?xml version="1.0" standalone="no"?><!DOCTYPE svg PUBLIC "-//W3C//DTD SVG 1.1//EN" "http://www.w3.org/Graphics/SVG/1.1/DTD/svg11.dtd"><svg t="1514961275219" class="icon" style="" viewBox="0 0 1024 1024" version="1.1" xmlns="http://www.w3.org/2000/svg" p-id="37957" xmlns:xlink="http://www.w3.org/1999/xlink" width="200" height="200"><defs><style type="text/css"></style></defs><path d="M550.4 64c-160 0-307.2 83.2-384 217.6-6.4 12.8 0 25.6 6.4 32 12.8 6.4 25.6 6.4 32-6.4 70.4-121.6 204.8-198.4 345.6-198.4 224 0 403.2 179.2 403.2 403.2 0 134.4-70.4 256-172.8 326.4 0-51.2-38.4-89.6-89.6-89.6-51.2 0-89.6 38.4-89.6 89.6 0 25.6 12.8 51.2 32 64-25.6 6.4-51.2 6.4-83.2 6.4-115.2 0-224-51.2-300.8-134.4-6.4-12.8-25.6-12.8-32 0-12.8 6.4-12.8 25.6 0 32C300.8 902.4 422.4 960 550.4 960c249.6 0 448-198.4 448-448s-198.4-448-448-448z" p-id="37958" fill="#f4ea2a"></path><path d="M262.4 614.4c6.4-19.2 6.4-38.4 6.4-64s0-51.2-12.8-70.4c0-12.8-12.8-32-25.6-44.8-12.8-12.8-25.6-19.2-44.8-25.6-12.8-6.4-25.6-6.4-51.2-6.4H25.6v294.4h108.8c19.2 0 38.4 0 51.2-6.4 19.2-6.4 32-12.8 44.8-25.6 12.8-12.8 25.6-32 32-51.2z m-57.6-12.8c-6.4 12.8-12.8 25.6-19.2 32-6.4 6.4-12.8 6.4-19.2 12.8H83.2v-192H160c12.8 0 19.2 6.4 25.6 12.8 6.4 6.4 12.8 19.2 19.2 32 0 12.8 6.4 25.6 6.4 51.2s-6.4 38.4-6.4 51.2zM492.8 697.6h64V403.2h-57.6v198.4L377.6 403.2H320v294.4h57.6v-192zM723.2 652.8c-19.2 0-32-6.4-44.8-12.8s-19.2-25.6-19.2-44.8l-57.6 6.4c6.4 32 12.8 57.6 38.4 76.8 19.2 19.2 51.2 25.6 83.2 25.6 25.6 0 44.8-6.4 64-12.8s32-19.2 38.4-32c6.4-12.8 12.8-32 12.8-44.8 0-19.2-6.4-32-12.8-44.8-6.4-12.8-19.2-25.6-32-32-12.8-6.4-32-12.8-64-19.2s-44.8-12.8-57.6-19.2c-6.4-6.4-6.4-12.8-6.4-19.2 0-6.4 0-12.8 6.4-19.2 19.2-12.8 32-12.8 44.8-12.8 19.2 0 32 6.4 38.4 12.8 12.8 0 12.8 12.8 19.2 32h57.6c0-25.6-12.8-51.2-32-64-19.2-19.2-44.8-25.6-83.2-25.6-25.6 0-44.8 6.4-57.6 12.8-19.2 6.4-25.6 19.2-38.4 32-6.4 0-6.4 19.2-6.4 32 0 25.6 6.4 44.8 25.6 57.6 12.8 12.8 32 19.2 64 32 25.6 6.4 44.8 6.4 51.2 12.8 12.8 6.4 19.2 6.4 19.2 12.8 6.4 6.4 6.4 12.8 6.4 19.2 0 12.8-6.4 19.2-12.8 25.6-12.8 6.4-25.6 12.8-44.8 12.8z" p-id="37959" fill="#f4ea2a"></path></svg>