<?xml version="1.0" standalone="no"?><!DOCTYPE svg PUBLIC "-//W3C//DTD SVG 1.1//EN" "http://www.w3.org/Graphics/SVG/1.1/DTD/svg11.dtd"><svg t="1514961093738" class="icon" style="" viewBox="0 0 1024 1024" version="1.1" xmlns="http://www.w3.org/2000/svg" p-id="34828" xmlns:xlink="http://www.w3.org/1999/xlink" width="200" height="200"><defs><style type="text/css"></style></defs><path d="M506.6 826c-28.1 0-65.7-75.8-80.9-200.7h161.9c-1.3 10.4-3 20-4.6 29.8l47.1 17.4c0.6-0.8 1.6-1.8 2.2-2.6 2.4-14.6 4.8-29.3 6.6-44.6H670c14.5-16.1 31.6-33.2 50.6-50.9h-77.3c1.3-20.9 2-42.1 2-63.3 0-27.3-1.2-54.6-3.4-81.4h168.8c5.6 21 8.7 42.9 9.8 65.3l6.4-4.2h44.7c-2.2-39.2-10.4-76.8-24-111.9v-0.1h-0.1C794.4 242 661.8 144.6 506.4 144.6c-201.9 0-366.1 164.2-366.1 366.1s164.2 366.1 366.1 366.1c23.6 0 46.5-2.4 68.8-6.7-14.9-19.6-31.4-39.4-47.4-57.6-7.3 8.8-14.6 13.5-21.2 13.5z m85.8-251.6H420.8c-1.3-20.2-2.1-41.1-2.1-63.3 0-28.9 1.5-55.8 3.6-81.4H591c2.2 25.6 3.5 52.7 3.5 81.4 0 22.1-0.8 43.2-2.1 63.3z m200.1-195.5H636.6c-9.3-68.7-26.2-130-50.2-172.6 91.6 24 166.9 88.2 206.1 172.6zM506.6 196.3c26 0 61.9 69.4 78.6 182.6H427.7c16.4-114.3 52.1-182.6 78.9-182.6z m-79.9 10c-24 42.7-40.9 104-50.2 172.6H220.6c39.2-84.4 114.5-148.6 206.1-172.6zM191.4 510.8c0-28.1 4-55.1 10.9-81h168.8c-2.2 26.7-3.4 54-3.4 81.3 0 21.2 0.7 42.3 2 63.3H197.8c-4.2-20.5-6.4-41.8-6.4-63.6z m21.8 114.5h161.1c8.7 75.4 26.1 143.5 51.9 189.9-97.6-25.8-176.6-97.1-213-189.9z m629.9-81.5C716.9 627.9 646.9 740 646.9 740l-112.2-56-28.1 28s98.1 98.3 140.2 168.2c56.1-97.9 154.2-252.3 252.3-336.4h-56z" p-id="34829" fill="#ffffff"></path></svg>