<?xml version="1.0" standalone="no"?><!DOCTYPE svg PUBLIC "-//W3C//DTD SVG 1.1//EN" "http://www.w3.org/Graphics/SVG/1.1/DTD/svg11.dtd"><svg t="1519367816026" class="icon" style="" viewBox="0 0 1024 1024" version="1.1" xmlns="http://www.w3.org/2000/svg" p-id="6101" xmlns:xlink="http://www.w3.org/1999/xlink" width="200" height="200"><defs><style type="text/css"></style></defs><path d="M504.435938 16.446196c-278.073931 0-503.496472 225.423548-503.496472 503.496472 0 276.100347 222.235606 500.290405 497.584783 503.459215 1.91921 0.024166 3.842447 0.037256 5.767698 0.037256 0.024166 0 0.048333 0 0.072499 0 0.024166 0 0.048333 0 0.072499 0 278.073931 0 503.496472-225.423548 503.496472-503.496472S782.509869 16.446196 504.435938 16.446196zM192.112273 268.194935l3.857551 0c-1.293906 1.267726-2.579756 2.544513-3.857551 3.827343L192.112273 268.194935zM754.926014 551.661986c-13.545229 0-25.571-8.666651-29.853476-21.517098l-27.009904-81.030719L596.833896 872.924173c-3.217143 14.475633-16.059535 24.641604-30.699298 24.641604-0.712907 0-1.429841-0.024166-2.150804-0.072499-15.516799-1.053249-27.937287-13.284434-29.229179-28.783109l-45.750895-486.076574-80.98138 333.196328c-3.268496 14.70622-16.502584 25.000071-31.56123 24.631534-15.06066-0.402772-27.721804-11.424634-30.198853-26.284914l-42.10782-252.648935-22.87142 68.616273c-4.278448 12.835343-16.282066 21.49998-29.812192 21.517098l-124.801989 0.249719-0.083575-62.937185 102.153101-0.219511 55.774888-167.324664c4.572471-13.716407 17.900204-22.550209 32.315421-21.420433 14.413203 1.130783 26.201339 11.937161 28.578702 26.199325l36.311928 217.867541 90.74055-377.113602c3.374224-15.182498 17.333302-25.612285 32.850101-24.570111 15.516799 1.053249 27.937287 13.284434 29.229179 28.783109l45.751902 486.076574 80.980373-332.695883c3.068117-13.808038 14.973057-23.872309 29.098278-24.601326 14.128242-0.725997 27.001849 8.057458 31.474634 21.475814l55.764819 167.294456 104.304911 0 0 62.937185L754.926014 551.661986z" p-id="6102" fill="#ffffff"></path></svg>