<?xml version="1.0" standalone="no"?><!DOCTYPE svg PUBLIC "-//W3C//DTD SVG 1.1//EN" "http://www.w3.org/Graphics/SVG/1.1/DTD/svg11.dtd"><svg t="1519367468746" class="icon" style="" viewBox="0 0 1024 1024" version="1.1" xmlns="http://www.w3.org/2000/svg" p-id="2286" xmlns:xlink="http://www.w3.org/1999/xlink" width="200" height="200"><defs><style type="text/css"></style></defs><path d="M512 42.666667C253.866667 42.666667 42.666667 253.866667 42.666667 512s211.2 469.333333 469.333333 469.333333 469.333333-211.2 469.333333-469.333333S770.133333 42.666667 512 42.666667z m0 108.8c189.866667 0 343.466667 155.733333 360.533333 330.666666h-44.8C810.666667 330.666667 676.266667 196.266667 512 196.266667S213.333333 330.666667 198.4 482.133333H151.466667c14.933333-174.933333 170.666667-330.666667 360.533333-330.666666z m34.133333 458.666666H469.333333l12.8-81.066666c-19.2-8.533333-34.133333-32-34.133333-55.466667 0-32 25.6-59.733333 59.733333-59.733333 32 0 59.733333 25.6 59.733334 59.733333 0 23.466667-14.933333 44.8-34.133334 55.466667l12.8 81.066666zM512 753.066667c121.6 0 221.866667-96 236.8-209.066667h34.133333C768 678.4 652.8 789.333333 509.866667 789.333333c-140.8 0-258.133333-110.933333-273.066667-245.333333h34.133333c19.2 113.066667 119.466667 209.066667 241.066667 209.066667z m236.8-270.933334c-14.933333-104.533333-115.2-209.066667-236.8-209.066666s-221.866667 104.533333-236.8 209.066666h-34.133333c14.933333-128 130.133333-245.333333 273.066666-245.333333 140.8 0 258.133333 117.333333 273.066667 245.333333h-38.4zM512 874.666667c-189.866667 0-345.6-136.533333-360.533333-330.666667h44.8c14.933333 164.266667 149.333333 285.866667 313.6 285.866667s298.666667-121.6 313.6-285.866667h44.8C857.6 738.133333 701.866667 874.666667 512 874.666667z" fill="#ffffff" p-id="2287"></path></svg>