<?xml version="1.0" standalone="no"?><!DOCTYPE svg PUBLIC "-//W3C//DTD SVG 1.1//EN" "http://www.w3.org/Graphics/SVG/1.1/DTD/svg11.dtd"><svg t="1514964898375" class="icon" style="" viewBox="0 0 1024 1024" version="1.1" xmlns="http://www.w3.org/2000/svg" p-id="1928" xmlns:xlink="http://www.w3.org/1999/xlink" width="200" height="200"><defs><style type="text/css"></style></defs><path d="M284.2 756.5c-9.5 2.4-17.7-4.9-16.6-14.9 3.4-36.2 15.1-69.5 34.9-100 26.7-41.2 62.8-71 108.3-89.7 2.9-1.2 5.8-2.5 8.7-3.8 0.5-0.3 1.1-0.5 2.5-1.2-52-31.7-82.1-76.3-84-137.7-1.3-43 13.3-80.3 42.9-111.4 65-68.1 168.7-66.3 232.4 2.5 67.5 72.9 48.9 199.4-43.4 246.8 4.5 2 8.6 3.7 12.7 5.5 63.8 27.3 107.7 73.7 130.8 139.2 5.3 14.9 7.4 30.9 10.8 46.5 0.5 2.6 0.1 5.8-0.5 8.5-1.7 6.7-6.5 10.3-12.9 10M136.6 294.9l-35.1-21.1c84.1-139.7 231.5-223 394.4-223 75 0 149.6 18.5 215.5 53.5l-19.3 36.2c-60-31.9-127.9-48.8-196.3-48.8-148.4 0-282.6 76.1-359.2 203.2z" fill="" p-id="1929"></path><path d="M495.8 970.8c-253.6 0-460-206.4-460-460h40.9c0 231.1 188 419.1 419.1 419.1v40.9zM723.6 910.6L703.3 875C833.8 800.5 915 661 915 510.8c0-77-21-152.2-60.9-217.6l35-21.3c43.7 71.8 66.8 154.4 66.8 238.9 0 164.8-89 318-232.3 399.8z" fill="" p-id="1930"></path><path d="M808.2 196.7m-42.8 0a42.8 42.8 0 1 0 85.6 0 42.8 42.8 0 1 0-85.6 0Z" fill="" p-id="1931"></path><path d="M614.7 930.4m-42.8 0a42.8 42.8 0 1 0 85.6 0 42.8 42.8 0 1 0-85.6 0Z" fill="" p-id="1932"></path><path d="M76.2 391.1m-42.8 0a42.8 42.8 0 1 0 85.6 0 42.8 42.8 0 1 0-85.6 0Z" fill="" p-id="1933"></path></svg>