<?xml version="1.0" standalone="no"?><!DOCTYPE svg PUBLIC "-//W3C//DTD SVG 1.1//EN" "http://www.w3.org/Graphics/SVG/1.1/DTD/svg11.dtd"><svg t="1514927752065" class="icon" style="" viewBox="0 0 1024 1024" version="1.1" xmlns="http://www.w3.org/2000/svg" p-id="22553" xmlns:xlink="http://www.w3.org/1999/xlink" width="200" height="200"><defs><style type="text/css"></style></defs><path d="M805.827733 547.260053 805.827733 546.432127 586.491539 671.863135 586.491539 757.967592 805.827733 632.536582 805.827733 547.260053Z" p-id="22554" fill="#f4ea2a"></path><path d="M437.508461 671.863135 218.172266 546.432127 218.172266 547.260053 218.172266 632.536582 437.508461 757.967592 437.508461 671.863135Z" p-id="22555" fill="#f4ea2a"></path><path d="M514.069211 75.755363 814.104573 253.759768 883.630008 214.847177 512 1.655855 140.369993 214.847177 209.895428 253.759768 514.069211 75.755363Z" p-id="22556" fill="#f4ea2a"></path><path d="M512 500.482153 69.189189 253.759768 69.189189 767.074794 512 1020.006635 954.810811 767.074794 954.810811 253.759768 512 500.482153 512 500.482153ZM880.319272 723.608604 512 933.902178 143.680728 723.608604 143.680728 380.432669 512 585.758681 548.418087 565.474459 880.319272 380.432669 880.319272 723.608604 880.319272 723.608604Z" p-id="22557" fill="#f4ea2a"></path><path d="M776.858803 568.372205 627.875726 651.164952 627.875726 725.678423 776.858803 642.885676 776.858803 568.372205Z" p-id="22558" fill="#f4ea2a"></path><path d="M805.959641 547.260053 805.959641 546.432127 586.491538 671.863135 586.491538 757.967592 805.959641 632.536582 805.959641 547.260053Z" p-id="22559" fill="#f4ea2a"></path><path d="M512 1.655855 512 76.997254 514.069209 75.755363 814.104573 253.759768 883.630008 214.847177 512 1.655855Z" p-id="22560" fill="#f4ea2a"></path><path d="M512 500.482153 512 585.758681 548.418085 565.474459 880.319272 380.432669 880.319272 723.608604 512 933.902178 512 1020.006635 954.810811 767.074794 954.810811 253.759768 512 500.482153Z" p-id="22561" fill="#f4ea2a"></path></svg>