<?xml version="1.0" standalone="no"?><!DOCTYPE svg PUBLIC "-//W3C//DTD SVG 1.1//EN" "http://www.w3.org/Graphics/SVG/1.1/DTD/svg11.dtd"><svg t="1514950124581" class="icon" style="" viewBox="0 0 1024 1024" version="1.1" xmlns="http://www.w3.org/2000/svg" p-id="28163" xmlns:xlink="http://www.w3.org/1999/xlink" width="200" height="200"><defs><style type="text/css"></style></defs><path d="M774.826667 1024h-187.733334c-68.266667 0-126.293333-58.026667-126.293333-126.293333v-187.733334c0-68.266667 58.026667-126.293333 126.293333-126.293333h187.733334c68.266667 0 126.293333 58.026667 126.293333 126.293333v187.733334c0 68.266667-58.026667 126.293333-126.293333 126.293333z m-187.733334-382.293333c-37.546667 0-68.266667 30.72-68.266666 68.266666v187.733334c0 37.546667 30.72 68.266667 68.266666 68.266666h187.733334c37.546667 0 68.266667-30.72 68.266666-68.266666v-187.733334c0-37.546667-30.72-68.266667-68.266666-68.266666h-187.733334zM314.026667 1024H126.293333c-68.266667 0-126.293333-58.026667-126.293333-126.293333v-187.733334c0-68.266667 58.026667-126.293333 126.293333-126.293333h187.733334c68.266667 0 126.293333 58.026667 126.293333 126.293333v187.733334c0 68.266667-58.026667 126.293333-126.293333 126.293333zM126.293333 641.706667c-37.546667 0-68.266667 30.72-68.266666 68.266666v187.733334c0 37.546667 30.72 68.266667 68.266666 68.266666h187.733334c37.546667 0 68.266667-30.72 68.266666-68.266666v-187.733334c0-37.546667-30.72-68.266667-68.266666-68.266666H126.293333z m187.733334-78.506667H126.293333c-68.266667 0-126.293333-58.026667-126.293333-126.293333V249.173333c0-68.266667 58.026667-126.293333 126.293333-126.293333h187.733334c68.266667 0 126.293333 58.026667 126.293333 126.293333v187.733334c0 71.68-58.026667 126.293333-126.293333 126.293333zM126.293333 180.906667c-37.546667 0-68.266667 30.72-68.266666 68.266666v187.733334c0 37.546667 30.72 68.266667 68.266666 68.266666h187.733334c37.546667 0 68.266667-30.72 68.266666-68.266666V249.173333c0-37.546667-30.72-68.266667-68.266666-68.266666H126.293333z m631.466667 354.986666c-27.306667 0-54.613333-10.24-75.093333-30.72L518.826667 341.333333c-40.96-40.96-40.96-105.813333 0-146.773333L682.666667 30.72c40.96-40.96 109.226667-40.96 146.773333 0l163.84 163.84c20.48 17.066667 30.72 44.373333 30.72 71.68s-10.24 54.613333-30.72 75.093333l-163.84 163.84c-17.066667 17.066667-44.373333 30.72-71.68 30.72z m0-481.28c-13.653333 0-23.893333 3.413333-34.133333 13.653334l-163.84 163.84c-20.48 20.48-20.48 51.2 0 68.266666l163.84 163.84c17.066667 17.066667 51.2 17.066667 68.266666 0L955.733333 300.373333c10.24-10.24 13.653333-20.48 13.653334-34.133333s-3.413333-23.893333-13.653334-34.133333L791.893333 68.266667c-10.24-6.826667-23.893333-13.653333-34.133333-13.653334z" p-id="28164"></path></svg>