<?xml version="1.0" standalone="no"?><!DOCTYPE svg PUBLIC "-//W3C//DTD SVG 1.1//EN" "http://www.w3.org/Graphics/SVG/1.1/DTD/svg11.dtd"><svg t="1514980414891" class="icon" style="" viewBox="0 0 1024 1024" version="1.1" xmlns="http://www.w3.org/2000/svg" p-id="3899" xmlns:xlink="http://www.w3.org/1999/xlink" width="200" height="200"><defs><style type="text/css"></style></defs><path d="M904.78 361.98c0 70.918-57.28 125.471-125.471 125.471H659.293c-70.92 0-125.472-57.28-125.472-125.471V241.964c0-70.919 57.28-125.472 125.472-125.472h120.016c70.918 0 125.471 57.28 125.471 125.472V361.98zM487.451 782.036c0 70.919-57.28 125.472-125.471 125.472H241.964c-68.191 0-125.472-57.28-125.472-125.472V662.02c0-70.918 57.28-125.471 125.472-125.471H361.98c70.918 0 125.471 57.28 125.471 125.471v120.016z" fill="#ABCD03" p-id="3900"></path><path d="M779.309 536.549H662.02c-103.65 5.455-180.024-70.919-174.569-174.57V244.692c0-70.918-57.28-128.199-125.471-128.199H241.964c-68.191 0-125.472 57.28-125.472 125.472V361.98c0 70.918 57.28 125.471 125.472 125.471h117.288c103.65-5.455 180.024 70.919 174.57 174.57v117.288c0 70.918 57.28 125.471 125.47 125.471H779.31c70.918 0 125.471-57.28 125.471-125.471V662.02c2.728-70.918-54.553-125.471-125.471-125.471z" fill="#20AEE5" p-id="3901"></path></svg>