<?xml version="1.0" standalone="no"?><!DOCTYPE svg PUBLIC "-//W3C//DTD SVG 1.1//EN" "http://www.w3.org/Graphics/SVG/1.1/DTD/svg11.dtd"><svg t="1515646895477" class="icon" style="" viewBox="0 0 1024 1024" version="1.1" xmlns="http://www.w3.org/2000/svg" p-id="1146" xmlns:xlink="http://www.w3.org/1999/xlink" width="200" height="200"><defs><style type="text/css"></style></defs><path d="M509.956969 65.13344c246.246357 0 446.566732 200.321398 446.566732 446.572872 0 246.248404-200.321398 446.568778-446.566732 446.568778-246.254543 0-446.574918-200.321398-446.574918-446.568778C63.381028 265.453814 263.702426 65.13344 509.956969 65.13344L509.956969 65.13344zM509.956969 894.481158c211.066113 0 382.7728-171.706687 382.7728-382.774847 0-211.073276-171.706687-382.77894-382.7728-382.77894-211.075323 0-382.780986 171.705664-382.780986 382.77894C127.174959 722.774471 298.881646 894.481158 509.956969 894.481158L509.956969 894.481158zM289.698496 522.515494c0.033769 0.127913 0.190335 0.257873 0.252757 0.385786 1.533936 3.603061 3.640923 7.04751 6.572696 10.017144 0.032746 0.027629 0.066515 0.027629 0.096191 0.063445 0.033769 0.028653 0.033769 0.064468 0.064468 0.098237l158.402683 158.846798c12.440333 12.440333 32.598442 12.538571 45.104267 0.068562 12.473079-12.440333 12.504802-32.635281 0.062422-45.105291L397.260258 543.601742l304.07953 0c17.610076 0 31.899524-14.291494 31.899524-31.895431 0-17.609053-14.289448-31.899524-31.899524-31.899524L395.565662 479.806787 501.341754 375.180891c12.536524-12.406564 12.629645-32.56672 0.257873-45.104267-6.221702-6.312776-14.452153-9.471722-22.682605-9.471722-8.102538 0-16.202007 3.094478-22.422685 9.218966L296.744983 487.813135C287.339776 497.15899 284.948309 510.937808 289.698496 522.515494L289.698496 522.515494zM289.698496 522.515494 289.698496 522.515494z" p-id="1147" fill="#cdcdcd"></path></svg>