<?xml version="1.0" standalone="no"?><!DOCTYPE svg PUBLIC "-//W3C//DTD SVG 1.1//EN" "http://www.w3.org/Graphics/SVG/1.1/DTD/svg11.dtd"><svg t="1518617507917" class="icon" style="" viewBox="0 0 1024 1024" version="1.1" xmlns="http://www.w3.org/2000/svg" p-id="23563" xmlns:xlink="http://www.w3.org/1999/xlink" width="200" height="200"><defs><style type="text/css"></style></defs><path d="M572.16 204.48C381.28 173.84 202.4 314.72 200 508a312 312 0 0 0 392.56 305.44 2.96 2.96 0 0 0-0.4-5.84 75.12 75.12 0 0 1-29.44-9.92 81.84 81.84 0 0 1-42.64-72A80 80 0 0 1 600 648c101.84 0 224-80 223.52-152.64 0-163.44-111.52-268.4-251.36-290.88zM324 536a60 60 0 1 1 60-60 60 60 0 0 1-60 60z m137.68-152a58.8 58.8 0 1 1 21.52-80 58.8 58.8 0 0 1-21.52 80z m153.44 4.88A59.28 59.28 0 1 1 696 367.28a59.28 59.28 0 0 1-80.88 21.68zM708 544a60 60 0 1 1 60-60 60 60 0 0 1-60 60z" p-id="23564" fill="#ffffff"></path></svg>