<?xml version="1.0" standalone="no"?><!DOCTYPE svg PUBLIC "-//W3C//DTD SVG 1.1//EN" "http://www.w3.org/Graphics/SVG/1.1/DTD/svg11.dtd"><svg t="1519357728042" class="icon" style="" viewBox="0 0 1024 1024" version="1.1" xmlns="http://www.w3.org/2000/svg" p-id="3041" xmlns:xlink="http://www.w3.org/1999/xlink" width="200" height="200"><defs><style type="text/css"></style></defs><path d="M795.938 483.292h68.757l1.025-171.047-120.939-71.191v93.587l51.92 28.977z" p-id="3042" fill="#ffffff"></path><path d="M212.077 374.21v-11.421l45.021-24.586v-93.763l-110.835 63.458-1.035 174.315h66.133z" p-id="3043" fill="#ffffff"></path><path d="M389.139 797.008v81.142l0.035 0.607 113.523 49.836 113.099-48.423v-82.985l-112.716 46.206z" p-id="3044" fill="#ffffff"></path><path d="M498.985 96.582c-99.68 0-180.484 81.241-180.484 181.465 0 100.213 80.806 181.454 180.484 181.454 99.684 0 180.484-81.241 180.484-181.454 0-100.223-80.799-181.465-180.484-181.465z" p-id="3045" fill="#ffffff"></path><path d="M227.313 514.895c-88.137 0-159.563 71.834-159.563 160.441 0 88.617 71.427 160.455 159.563 160.455 88.151 0 159.594-71.838 159.594-160.455-0.001-88.607-71.442-160.441-159.594-160.441z" p-id="3046" fill="#ffffff"></path><path d="M789.674 514.895c-88.131 0-159.594 71.834-159.594 160.441 0 88.617 71.46 160.455 159.594 160.455 88.127 0 159.573-71.838 159.573-160.455 0-88.607-71.446-160.441-159.573-160.441z" p-id="3047" fill="#ffffff"></path></svg>