<?xml version="1.0" standalone="no"?><!DOCTYPE svg PUBLIC "-//W3C//DTD SVG 1.1//EN" "http://www.w3.org/Graphics/SVG/1.1/DTD/svg11.dtd"><svg t="1515642147715" class="icon" style="" viewBox="0 0 1024 1024" version="1.1" xmlns="http://www.w3.org/2000/svg" p-id="2991" xmlns:xlink="http://www.w3.org/1999/xlink" width="200" height="200"><defs><style type="text/css"></style></defs><path d="M512 2.621c-281.322 0-509.378 228.057-509.378 509.379s228.057 509.377 509.379 509.377 509.378-228.057 509.379-509.377c0-281.324-228.058-509.379-509.378-509.379v0zM512.835 926.189c-228.75 0-414.189-185.437-414.189-414.188 0-228.752 185.437-414.19 414.189-414.19 228.748 0 414.189 185.443 414.189 414.19 0 228.75-185.435 414.188-414.189 414.188v0zM670.608 509.472c-0.005-0.129-0.017-0.257-0.022-0.383-0.705-12.13-5.887-24.015-15.457-32.86l-186.917-172.722c-19.625-18.127-50.513-16.913-68.647 2.714-18.134 19.621-16.913 50.513 2.708 68.647l148.406 137.133-148.404 137.136c-19.622 18.135-20.841 49.021-2.708 68.647 18.135 19.626 49.028 20.841 68.647 2.708l186.917-172.717c9.575-8.847 14.749-20.73 15.457-32.86 0.006-0.123 0.017-0.253 0.022-0.383 0.028-0.519 0.038-1.037 0.050-1.558 0.012-0.325 0.016-0.65 0.016-0.975 0-0.32-0.004-0.646-0.016-0.97-0.013-0.524-0.027-1.044-0.052-1.559v0zM670.608 509.472z" fill="#ffffff" p-id="2992"></path></svg>