<?xml version="1.0" standalone="no"?><!DOCTYPE svg PUBLIC "-//W3C//DTD SVG 1.1//EN" "http://www.w3.org/Graphics/SVG/1.1/DTD/svg11.dtd"><svg t="1519371063932" class="icon" style="" viewBox="0 0 1106 1024" version="1.1" xmlns="http://www.w3.org/2000/svg" p-id="12745" xmlns:xlink="http://www.w3.org/1999/xlink" width="216.015625" height="200"><defs><style type="text/css"></style></defs><path d="M1060.09762 0H46.279C20.671287 0 0 20.671287 0 46.279v778.258511c0 25.607713 20.671287 46.279 46.279 46.279h1013.81862c25.607713 0 46.279-20.671287 46.278999-46.279V46.279c0-25.607713-20.671287-46.279-46.278999-46.279z m-46.279 778.258512H92.557999V92.557999h921.260621v685.700513zM796.461585 931.442001H310.069298c-25.607713 0-46.279 20.671287-46.279 46.278999s20.671287 46.279 46.279 46.279h486.392287c25.607713 0 46.279-20.671287 46.279-46.279s-20.82555-46.279-46.279-46.278999z" p-id="12746" fill="#ffffff"></path><path d="M212.729135 307.755348h479.296174c25.607713 0 46.279-20.671287 46.279-46.279s-20.671287-46.279-46.279-46.278999H212.729135c-25.607713 0-46.279 20.671287-46.278999 46.278999s20.671287 46.279 46.278999 46.279zM865.880084 307.755348h23.1395c25.607713 0 46.279-20.671287 46.279-46.279s-20.671287-46.279-46.279-46.278999h-23.1395c-25.607713 0-46.279 20.671287-46.278999 46.278999s20.671287 46.279 46.278999 46.279zM212.729135 483.924074h479.296174c25.607713 0 46.279-20.671287 46.279-46.279s-20.671287-46.279-46.279-46.279H212.729135c-25.607713 0-46.279 20.671287-46.278999 46.279s20.671287 46.279 46.278999 46.279zM865.880084 483.924074h23.1395c25.607713 0 46.279-20.671287 46.279-46.279s-20.671287-46.279-46.279-46.279h-23.1395c-25.607713 0-46.279 20.671287-46.278999 46.279s20.671287 46.279 46.278999 46.279zM212.729135 660.092799h479.296174c25.607713 0 46.279-20.671287 46.279-46.279s-20.671287-46.279-46.279-46.278999H212.729135c-25.607713 0-46.279 20.671287-46.278999 46.278999s20.671287 46.279 46.278999 46.279zM865.880084 660.092799h23.1395c25.607713 0 46.279-20.671287 46.279-46.279s-20.671287-46.279-46.279-46.278999h-23.1395c-25.607713 0-46.279 20.671287-46.278999 46.278999s20.671287 46.279 46.278999 46.279z" p-id="12747" fill="#ffffff"></path></svg>