<?xml version="1.0" standalone="no"?><!DOCTYPE svg PUBLIC "-//W3C//DTD SVG 1.1//EN" "http://www.w3.org/Graphics/SVG/1.1/DTD/svg11.dtd"><svg t="1514961155164" class="icon" style="" viewBox="0 0 1024 1024" version="1.1" xmlns="http://www.w3.org/2000/svg" p-id="35549" xmlns:xlink="http://www.w3.org/1999/xlink" width="200" height="200"><defs><style type="text/css"></style></defs><path d="M918.445 807.83l-288.024 0.651v70.1l94.739 23.865v47.717h-426.322v-47.716l94.738-23.866v-70.099l-288.022-0.651c-24.070-0.001-43.554-19.319-43.554-43.147v-576.663c0-23.842 19.484-43.146 43.554-43.146h159.379c-19.488 31.079-32.398 68.147-35.877 107.918l-95.685-36.943v450.154h757.233v-450.157h-172.86c-9.856-39.427-28.033-73.701-52.644-102.275l253.344 31.299c24.041 0.001 43.555 19.306 43.555 43.147v576.665c0 23.827-19.513 43.145-43.555 43.145zM759.942 519.97c17.1 17.064 17.1 44.733 0 61.796-17.1 17.068-44.828 17.068-61.93 0l-128.474-128.197c-27.85 14.557-59.464 22.904-93.066 22.904-111.185 0-201.318-90.131-201.318-201.319s90.134-201.315 201.318-201.315 201.317 90.129 201.317 201.317c0 45.798-15.469 87.884-41.224 121.711l123.377 123.103zM476.365 147.042c-70.758 0-128.118 57.361-128.118 128.116 0 70.748 57.362 128.109 128.118 128.109 70.759 0 128.121-57.362 128.121-128.109 0-70.756-57.362-128.117-128.121-128.117z" p-id="35550" fill="#ffffff"></path></svg>