<?xml version="1.0" standalone="no"?><!DOCTYPE svg PUBLIC "-//W3C//DTD SVG 1.1//EN" "http://www.w3.org/Graphics/SVG/1.1/DTD/svg11.dtd"><svg t="1514964954365" class="icon" style="" viewBox="0 0 1024 1024" version="1.1" xmlns="http://www.w3.org/2000/svg" p-id="2623" xmlns:xlink="http://www.w3.org/1999/xlink" width="200" height="200"><defs><style type="text/css"></style></defs><path d="M512.1 64.1C265.1 64.1 64.2 265 64.2 512s200.9 447.9 447.9 447.9S960 759 960 512 759.1 64.1 512.1 64.1z m0 855C287.7 919.1 105 736.5 105 512s182.7-407 407.1-407c224.4 0 407 182.6 407 407.1s-182.5 407-407 407z" p-id="2624"></path><path d="M349.7 397H150.4v45h75.4v192.1h46.8V442h77.1zM462.4 496.9c-7.7-8.2-16.3-14.1-26-17.8-9.7-3.6-19.8-5.3-30.4-5-12.4 0.6-23.1 3.3-32 8.3-8.9 4.9-16.1 11-21.7 18.3-5.6 7.2-9.9 15.3-12.8 24.2-3.8 11.4-5.5 23.7-4.9 36.9 0.5 13.1 3.3 25.4 8.3 36.8 5 11.4 12.6 20.4 22.7 27 10.1 6.6 22.5 10.4 37 11.4 13.1 1 24.8-0.5 35.2-4.4 10.3-4 18.8-10 25.4-18.1 6.6-8.1 11.2-16.6 13.9-25.4 2.6-8.9 4.2-18.9 4.6-30.1 0.4-12.9-0.9-24.4-3.7-34.5-2.8-10.3-8-19.4-15.6-27.6zM432 587.4c-5.2 7.4-13.5 11.3-24.7 11.7-9.5 0.5-16.6-1.8-21.6-6.8-4.9-5-8.1-10.7-9.7-17.2-1.5-6.5-2.2-13.2-2-20.1 0.1-6 1.1-12.1 2.9-18.4 1.8-6.3 5.4-11.6 10.9-15.9 5.4-4.2 12.1-6.2 20.1-6.2 8 0.1 14.5 2.2 19.4 6.3 4.9 4.1 8.4 9.4 10.5 15.8 1.5 5 2.2 12.9 2 23.7 0.1 10.7-2.6 19.8-7.8 27.1zM623.9 493.2c-7.6-7.2-15.7-12.1-24.2-14.7-8.6-2.6-17.5-3.8-26.9-3.4-9.8 0.5-16.8 1.7-21 3.7-4.3 2-8 3.9-11.1 5.7l0.2-9.6H500v221.8h40.8v-69.1l8.4 4c6.5 3.5 15.8 5 28 4.5 9.9-0.2 19.4-2.3 28.5-6.1 9.1-3.9 16.6-9.6 22.6-17.1 6-7.5 10.4-16.4 13.2-26.5 2.8-10.2 4.3-20.7 4.4-31.6 0.1-12.2-1.6-23.8-5.1-34.6-3.8-10.8-9.3-19.8-16.9-27z m-23.7 87.4c-2.8 6.3-6.9 10.9-12.3 13.7-5.4 2.9-11.6 3.9-18.4 3.3-8.8-0.7-15-2.7-18.7-6-3.7-3.3-7.1-7-10.1-11.2v-51.2l7.7-7.9c4.6-5.1 12.4-7.9 23.4-8.1 7.6 0 14 1.9 19 5.6s8.8 8.7 11.1 15c1.9 5.6 2.8 13.3 2.6 22.9-0.1 9.6-1.6 17.6-4.3 23.9zM810.6 396.4v150.2l-98.8-150.2h-44.3v237.9h42.6V479l100.5 154.6h45V396.4z" p-id="2625"></path></svg>